<svg width="600" height="529" viewBox="0 0 600 529" fill="none" xmlns="http://www.w3.org/2000/svg">
<g clip-path="url(#clip0_1_72)">
<path d="M263.676 165.759L261.753 219.181L217.533 106.844L219.455 53.4219L263.676 165.759Z" fill="#303D89"/>
<path d="M415.152 208.057L413.23 261.479C380.819 226.597 320.394 208.332 261.616 219.181L263.539 165.759C322.316 154.91 382.879 173.175 415.152 208.057Z" fill="#C9980D"/>
<path d="M549.462 146.12L547.402 199.542L413.23 261.479L415.152 208.057L549.462 146.12Z" fill="#E3AC13"/>
<path d="M219.455 53.4219C346.624 29.9382 475.853 66.1937 549.325 146.12L415.152 208.057C382.742 173.175 322.316 154.91 263.539 165.759L219.455 53.4219Z" fill="#F6BC1C"/>
<path d="M265.599 112.337L261.753 219.181C203.113 230.03 164.111 266.697 161.776 308.034L165.621 201.19C167.956 159.854 206.958 123.186 265.599 112.337Z" fill="#6D9F05"/>
<path d="M165.621 201.19L161.639 308.034L0.274658 300.755L4.11993 193.912L165.621 201.19Z" fill="#78AB0E"/>
<path d="M221.378 0L265.461 112.337C206.821 123.186 167.819 159.854 165.484 201.19L4.11993 193.912C9.20119 99.4278 94.3465 23.4836 221.378 0Z" fill="#9ADA15"/>
<path d="M126.757 364.34C127.718 339.483 128.542 314.489 129.503 289.632C129.503 289.082 129.503 288.533 129.641 288.121L126.894 362.829C126.757 363.241 126.757 363.79 126.757 364.34Z" fill="#14A0C1"/>
<path d="M254.063 331.38L251.316 406.226L195.834 513.344L198.581 438.499L254.063 331.38Z" fill="#0EA492"/>
<path d="M198.581 438.499L195.834 513.207C71.8242 478.462 -4.80661 395.239 0.274646 300.755L3.02127 226.047C-2.05998 320.394 74.5708 403.754 198.581 438.499Z" fill="#0CB39F"/>
<path d="M3.02129 226.047L164.385 233.326C163.836 243.488 165.347 253.925 169.467 264.363C181.964 296.086 214.374 320.119 254.063 331.38L198.581 438.499C74.5708 403.754 -2.05996 320.394 3.02129 226.047Z" fill="#15DAC2"/>
<path d="M437.675 298.421C437.4 305.562 437.125 312.703 436.851 319.844C437.263 310.094 435.477 300.206 431.632 290.318C427.512 279.881 421.195 270.268 413.23 261.753L414.054 240.33C422.019 248.982 428.336 258.595 432.456 269.032C436.301 278.782 437.949 288.67 437.675 298.421Z" fill="#C23416"/>
<path d="M534.905 429.435L534.081 450.858L407.599 377.386L408.423 355.963L534.905 429.435Z" fill="#6DBA13"/>
<path d="M599.863 304.051C599.588 311.193 599.313 318.334 599.039 325.475C597.391 369.97 575.692 413.779 534.081 450.996L534.905 429.572C576.516 392.355 598.215 348.547 599.863 304.051Z" fill="#CB3818"/>
<path d="M548.226 178.256C621.698 258.183 616.48 356.512 534.768 429.435L408.286 355.963C434.379 332.479 444.816 300.481 432.319 268.895C428.199 258.457 421.881 248.844 413.916 240.192L548.226 178.256Z" fill="#EF441E"/>
<path d="M535.729 408.011L534.218 450.721C493.431 487.114 439.872 511.559 380.957 522.408C322.179 533.257 258.045 530.648 195.972 513.344L197.482 470.634C259.419 488.075 323.552 490.685 382.467 479.698C441.245 468.849 494.804 444.541 535.729 408.011Z" fill="#DB4D73"/>
<path d="M409.247 334.539L535.729 408.011C494.942 444.404 441.382 468.849 382.467 479.698C323.69 490.547 259.556 487.938 197.482 470.634L252.964 363.516C279.332 371.069 309.133 372.854 338.247 367.498C367.498 362.005 391.806 350.195 409.247 334.539Z" fill="#F45F86"/>
</g>
<defs>
<clipPath id="clip0_1_72">
<rect width="600" height="529" fill="white"/>
</clipPath>
</defs>
</svg>
