<svg width="242" height="776" viewBox="0 0 242 776" fill="none" xmlns="http://www.w3.org/2000/svg">
<path d="M186.044 1H140.044C97.044 48 136.044 106 156.044 124.5C172.044 139.3 183.044 154.333 186.544 160C226.544 223.5 170.544 267 146.544 273.5C93.0437 287.5 86.0437 278.5 54.0437 311C22.0437 343.5 55.5437 394 56.5437 395C57.5437 396 74.0437 420 48.5437 434.5C23.0437 449 11.0438 461 2.54381 484.5C-5.95619 508 4.54381 572 69.5438 601C121.544 624.2 141.21 651.667 144.544 662.5C162.044 701.5 130 734 110.544 748C95.7219 758.665 78.8771 770 73.0438 775.5H108.294H143.544C176.744 748.7 184.608 720.5 187.544 708C205.044 633.5 135.544 587 112.044 576C88.5439 565 18.5 524.5 53.5439 480.5C95 443.5 120.565 430.262 91.0438 374.5C68.5437 332 104.044 322.5 125.544 319.5L125.836 319.459C147.466 316.442 194.003 309.951 229.044 255C269.044 170 202.219 114.368 198.044 109C194.544 104.5 154.603 67.5 165.044 41C174.5 17 180 16 186.044 1Z" fill="url(#paint0_linear_1_158)"/>
<path d="M162.703 1C147.203 11.5 130 45.5 151.203 78C182.568 126.077 238.203 169.5 216.703 227C210.5 243.589 187 298 90.9997 306C51.7968 330 62.8693 354 70.2026 370.5C78.536 384.167 90.4998 420.7 80.4998 433.5C64.8748 453.5 10.2026 461.5 22.7026 516C35.3174 571 99.4997 591 121.703 601C145.5 618 181.5 661.5 166.703 710.5C143.203 745 123 768 111.5 774.5" stroke="#010F1B" stroke-width="2" stroke-dasharray="10 10"/>
<g filter="url(#filter0_d_1_158)">
<circle cx="143" cy="41" r="13" fill="white"/>
</g>
<circle cx="143" cy="41" r="8.27273" fill="#EF431E"/>
<g filter="url(#filter1_d_1_158)">
<circle cx="93" cy="306" r="13" fill="white"/>
</g>
<circle cx="93" cy="306" r="8.27273" fill="#EF431E"/>
<g filter="url(#filter2_d_1_158)">
<circle cx="80" cy="429" r="13" fill="white"/>
</g>
<circle cx="80" cy="429" r="8.27273" fill="#EF431E"/>
<g filter="url(#filter3_d_1_158)">
<circle cx="165" cy="709" r="13" fill="white"/>
</g>
<circle cx="165" cy="709" r="8.27273" fill="#EF431E"/>
<defs>
<filter id="filter0_d_1_158" x="126" y="27" width="34" height="34" filterUnits="userSpaceOnUse" color-interpolation-filters="sRGB">
<feFlood flood-opacity="0" result="BackgroundImageFix"/>
<feColorMatrix in="SourceAlpha" type="matrix" values="0 0 0 0 0 0 0 0 0 0 0 0 0 0 0 0 0 0 127 0" result="hardAlpha"/>
<feOffset dy="3"/>
<feGaussianBlur stdDeviation="2"/>
<feComposite in2="hardAlpha" operator="out"/>
<feColorMatrix type="matrix" values="0 0 0 0 0 0 0 0 0 0 0 0 0 0 0 0 0 0 0.25 0"/>
<feBlend mode="normal" in2="BackgroundImageFix" result="effect1_dropShadow_1_158"/>
<feBlend mode="normal" in="SourceGraphic" in2="effect1_dropShadow_1_158" result="shape"/>
</filter>
<filter id="filter1_d_1_158" x="76" y="292" width="34" height="34" filterUnits="userSpaceOnUse" color-interpolation-filters="sRGB">
<feFlood flood-opacity="0" result="BackgroundImageFix"/>
<feColorMatrix in="SourceAlpha" type="matrix" values="0 0 0 0 0 0 0 0 0 0 0 0 0 0 0 0 0 0 127 0" result="hardAlpha"/>
<feOffset dy="3"/>
<feGaussianBlur stdDeviation="2"/>
<feComposite in2="hardAlpha" operator="out"/>
<feColorMatrix type="matrix" values="0 0 0 0 0 0 0 0 0 0 0 0 0 0 0 0 0 0 0.25 0"/>
<feBlend mode="normal" in2="BackgroundImageFix" result="effect1_dropShadow_1_158"/>
<feBlend mode="normal" in="SourceGraphic" in2="effect1_dropShadow_1_158" result="shape"/>
</filter>
<filter id="filter2_d_1_158" x="63" y="415" width="34" height="34" filterUnits="userSpaceOnUse" color-interpolation-filters="sRGB">
<feFlood flood-opacity="0" result="BackgroundImageFix"/>
<feColorMatrix in="SourceAlpha" type="matrix" values="0 0 0 0 0 0 0 0 0 0 0 0 0 0 0 0 0 0 127 0" result="hardAlpha"/>
<feOffset dy="3"/>
<feGaussianBlur stdDeviation="2"/>
<feComposite in2="hardAlpha" operator="out"/>
<feColorMatrix type="matrix" values="0 0 0 0 0 0 0 0 0 0 0 0 0 0 0 0 0 0 0.25 0"/>
<feBlend mode="normal" in2="BackgroundImageFix" result="effect1_dropShadow_1_158"/>
<feBlend mode="normal" in="SourceGraphic" in2="effect1_dropShadow_1_158" result="shape"/>
</filter>
<filter id="filter3_d_1_158" x="148" y="695" width="34" height="34" filterUnits="userSpaceOnUse" color-interpolation-filters="sRGB">
<feFlood flood-opacity="0" result="BackgroundImageFix"/>
<feColorMatrix in="SourceAlpha" type="matrix" values="0 0 0 0 0 0 0 0 0 0 0 0 0 0 0 0 0 0 127 0" result="hardAlpha"/>
<feOffset dy="3"/>
<feGaussianBlur stdDeviation="2"/>
<feComposite in2="hardAlpha" operator="out"/>
<feColorMatrix type="matrix" values="0 0 0 0 0 0 0 0 0 0 0 0 0 0 0 0 0 0 0.25 0"/>
<feBlend mode="normal" in2="BackgroundImageFix" result="effect1_dropShadow_1_158"/>
<feBlend mode="normal" in="SourceGraphic" in2="effect1_dropShadow_1_158" result="shape"/>
</filter>
<linearGradient id="paint0_linear_1_158" x1="146.5" y1="-8" x2="121" y2="776" gradientUnits="userSpaceOnUse">
<stop stop-color="#DDF400"/>
<stop offset="0.536475" stop-color="#DDF400"/>
<stop offset="1" stop-color="#DDF400" stop-opacity="0"/>
</linearGradient>
</defs>
</svg>
